HIERARCHY
ROOT Hips
{
 OFFSET 0.000000 0.000000 0.000000
 CHANNELS 6 Xposition Yposition Zposition Yrotation Xrotation Zrotation
 JOINT Chest
 {
  OFFSET 0.000000 9.585900 0.002600
  CHANNELS 3 Yrotation Xrotation Zrotation
  JOINT Chest2
  {
   OFFSET 0.000000 9.601200 -0.005300
   CHANNELS 3 Yrotation Xrotation Zrotation
   JOINT Chest3
   {
    OFFSET 0.000000 9.561800 0.000000
    CHANNELS 3 Yrotation Xrotation Zrotation
    JOINT Chest4
    {
     OFFSET 0.000000 9.552100 0.000000
     CHANNELS 3 Yrotation Xrotation Zrotation
     JOINT Neck
     {
      OFFSET 0.000000 14.453000 0.000000
      CHANNELS 3 Yrotation Xrotation Zrotation
      JOINT Head
      {
       OFFSET 0.000000 8.936500 -0.011300
       CHANNELS 3 Yrotation Xrotation Zrotation
       End Site
       {
        OFFSET 0.000000 17.073600 -0.006000
       }
      }
     }
     JOINT RightCollar
     {
      OFFSET -2.921100 9.558500 0.000000
      CHANNELS 3 Yrotation Xrotation Zrotation
      JOINT RightShoulder
      {
       OFFSET -13.519700 0.000000 0.000000
       CHANNELS 3 Yrotation Xrotation Zrotation
       JOINT RightElbow
       {
        OFFSET 0.000000 -29.696600 0.000000
        CHANNELS 3 Yrotation Xrotation Zrotation
        JOINT RightWrist
        {
         OFFSET 0.000000 -24.004700 0.000000
         CHANNELS 3 Yrotation Xrotation Zrotation
         End Site
         {
          OFFSET 0.000000 -17.728500 0.000000
         }
        }
       }
      }
     }
     JOINT LeftCollar
     {
      OFFSET 2.921100 9.558500 0.000000
      CHANNELS 3 Yrotation Xrotation Zrotation
      JOINT LeftShoulder
      {
       OFFSET 13.519700 0.000000 0.000000
       CHANNELS 3 Yrotation Xrotation Zrotation
       JOINT LeftElbow
       {
        OFFSET 0.000000 -29.696600 0.000000
        CHANNELS 3 Yrotation Xrotation Zrotation
        JOINT LeftWrist
        {
         OFFSET 0.000000 -24.004700 0.000000
         CHANNELS 3 Yrotation Xrotation Zrotation
         End Site
         {
          OFFSET 0.000000 -17.728500 0.000000
         }
        }
       }
      }
     }
    }
   }
  }
 }
 JOINT RightHip
 {
  OFFSET -7.771700 -0.012900 -0.001300
  CHANNELS 3 Yrotation Xrotation Zrotation
  JOINT RightKnee
  {
   OFFSET 0.000000 -40.869800 0.001200
   CHANNELS 3 Yrotation Xrotation Zrotation
   JOINT RightAnkle
   {
    OFFSET 0.000000 -39.717900 0.002100
    CHANNELS 3 Yrotation Xrotation Zrotation
    JOINT RightToe
    {
     OFFSET 0.000000 -4.965400 11.033500
     CHANNELS 3 Yrotation Xrotation Zrotation
     End Site
     {
      OFFSET 0.000000 -1.423100 5.872300
     }
    }
   }
  }
 }
 JOINT LeftHip
 {
  OFFSET 7.771700 -0.012900 -0.001300
  CHANNELS 3 Yrotation Xrotation Zrotation
  JOINT LeftKnee
  {
   OFFSET 0.000000 -40.869800 0.001200
   CHANNELS 3 Yrotation Xrotation Zrotation
   JOINT LeftAnkle
   {
    OFFSET 0.000000 -39.717900 0.002100
    CHANNELS 3 Yrotation Xrotation Zrotation
    JOINT LeftToe
    {
     OFFSET 0.000000 -4.965400 11.033500
     CHANNELS 3 Yrotation Xrotation Zrotation
     End Site
     {
      OFFSET 0.000000 -1.423100 5.872300
     }
    }
   }
  }
 }
}
MOTION
Frames: 12
Frame Time: 0.008333
0.000000 85.388000 0.000000 0.000000 -5.767877 0.000000 0.000000 11.653817 0.000000 0.000000 -5.885947 0.000000 0.000000 -0.000000 0.000000 0.000000 -0.000000 0.000000 0.000000 12.528835 0.000000 0.000000 0.711642 0.000000 0.000000 -0.000000 0.000000 0.000000 0.000000 -90.000000 0.000000 -2.309062 0.000000 0.000000 2.309062 0.000000 0.000000 -0.000000 0.000000 0.000000 -0.000000 90.000000 0.000000 -2.309062 0.000000 0.000000 2.309062 0.000000 0.000000 8.520406 0.000000 0.000000 1.905762 0.000000 -0.000000 -4.658285 0.000000 0.000000 -0.000000 0.000000 0.000000 8.520406 0.000000 0.000000 1.905762 0.000000 -0.000000 -4.658285 0.000000 0.000000 -0.000000 0.000000
-15.010905 57.838187 55.134007 179.452998 -32.738957 -2.783656 1.580632 21.412626 3.970895 0.116742 2.908647 0.284196 0.180328 4.754902 0.472025 0.942306 18.348859 1.960686 -2.829286 15.490933 -1.409190 -4.734213 -7.080638 -1.648073 4.070902 -0.377088 0.071702 20.406862 -34.999844 -23.986837 156.343329 -87.307308 -130.451639 9.168298 -23.435460 -47.735977 -9.830549 -3.465726 -3.940425 -1.486353 -29.648327 4.139336 -137.549597 -65.036085 119.869950 -5.595894 -10.810409 17.700408 6.585094 -39.115325 -6.755925 0.312283 68.119577 0.845003 5.952632 10.889263 7.846125 -0.049889 -7.489540 0.062402 -14.375795 -45.911634 4.061319 26.607269 64.746863 23.485312 -10.425787 37.053288 3.725489 0.528272 -20.586836 -8.890912
-15.010771 57.837863 55.134808 179.452706 -32.729924 -2.778571 1.567449 21.416172 3.968046 0.116532 2.909554 0.280709 0.178771 4.754572 0.472767 0.936825 18.348152 1.962559 -2.826948 15.494010 -1.403019 -4.725743 -7.035222 -1.626416 4.088217 -0.380864 0.072489 20.536319 -35.005734 -24.014025 163.043398 -86.421752 -136.556396 9.503803 -23.603274 -47.995128 -9.836861 -3.474505 -3.958523 -1.797112 -29.698094 4.199038 -138.633271 -65.241224 120.634405 -5.414258 -11.327945 18.598603 6.586271 -39.125953 -6.752978 0.304400 68.121006 0.824816 5.957218 10.889466 7.845068 -0.053734 -7.490947 0.071498 -14.380149 -45.922009 4.066740 26.584676 64.752082 23.451203 -10.402124 37.060854 3.744785 0.522574 -20.592639 -8.895292
-15.008812 57.837535 55.136179 179.452620 -32.719025 -2.785638 1.560109 21.415549 3.981607 0.106768 2.915120 0.283388 0.167779 4.754848 0.479565 0.937016 18.339755 1.950421 -2.823180 15.497926 -1.400251 -4.715872 -7.022999 -1.627607 4.132115 -0.357161 0.115522 20.726766 -35.005156 -24.131311 167.129609 -85.533332 -140.096289 9.790677 -23.767174 -48.168700 -9.839147 -3.476614 -3.985192 -2.115817 -29.740311 4.267523 -139.753709 -65.417861 121.437999 -5.270604 -11.798163 19.360451 6.582464 -39.137533 -6.732781 0.292313 68.118186 0.800640 5.954403 10.891819 7.849494 -0.054795 -7.491905 0.076730 -14.417983 -45.933259 4.109714 26.574649 64.763669 23.413682 -10.386735 37.068014 3.757778 0.508826 -20.602508 -8.891381
-15.008245 57.836968 55.138307 179.461657 -32.704651 -2.791432 1.544991 21.408241 3.987986 0.108779 2.913303 0.280231 0.160969 4.753991 0.483629 0.894023 18.343592 1.970650 -2.799153 15.499749 -1.422813 -4.702163 -7.013011 -1.632436 4.187317 -0.349864 0.083074 20.938769 -34.995097 -24.215075 169.952886 -84.656666 -142.405157 10.049215 -23.920481 -48.312818 -9.812997 -3.483978 -4.041895 -2.442071 -29.773529 4.346186 -140.876819 -65.548643 122.247716 -5.159158 -12.230883 20.004208 6.580029 -39.151358 -6.723335 0.272892 68.116480 0.770454 5.951785 10.892702 7.858669 -0.055310 -7.492259 0.078963 -14.474776 -45.946578 4.163128 26.540103 64.778211 23.333701 -10.359244 37.074977 3.774423 0.505484 -20.606483 -8.887940
-15.009419 57.836805 55.140304 179.466673 -32.694194 -2.787442 1.534919 21.400254 3.982458 0.098754 2.917341 0.289333 0.168404 4.749033 0.474303 0.882635 18.345579 1.977314 -2.799390 15.508663 -1.408262 -4.687914 -7.017210 -1.652509 4.206842 -0.340950 0.083272 21.177527 -34.977852 -24.324370 172.042654 -83.793858 -143.995593 10.305248 -24.062481 -48.476478 -9.823140 -3.484998 -4.069243 -2.772795 -29.800164 4.436669 -141.959006 -65.621348 123.024798 -5.071244 -12.643544 20.579922 6.590628 -39.160786 -6.730629 0.260990 68.115908 0.754970 5.948011 10.893316 7.864426 -0.054091 -7.492310 0.080991 -14.486177 -45.953681 4.171790 26.514863 64.778681 23.295124 -10.363643 37.066099 3.769340 0.512995 -20.594061 -8.884197
-15.011372 57.836883 55.142517 179.473526 -32.685452 -2.782853 1.511426 21.402559 3.979296 0.079870 2.926896 0.304171 0.179422 4.740916 0.462228 0.881289 18.341018 1.971531 -2.796674 15.512475 -1.402067 -4.676244 -7.018860 -1.666161 4.232773 -0.317100 0.091989 21.433090 -34.968111 -24.475800 173.625545 -82.948352 -145.084788 10.561983 -24.221086 -48.694773 -9.820200 -3.491853 -4.092104 -3.109997 -29.822809 4.530827 -143.011798 -65.644712 123.769458 -4.993786 -13.040308 21.148202 6.597430 -39.168850 -6.739545 0.264131 68.115122 0.752385 5.943679 10.896326 7.867543 -0.054620 -7.494640 0.085374 -14.487546 -45.958348 4.167474 26.496422 64.772910 23.271632 -10.370763 37.055212 3.759314 0.517802 -20.578554 -8.876806
-15.013502 57.837536 55.144507 179.476381 -32.681816 -2.777858 1.490737 21.406830 3.977479 0.082784 2.929035 0.304236 0.161050 4.748998 0.475771 0.844959 18.355585 1.995260 -2.767594 15.500259 -1.441249 -4.645855 -6.997071 -1.653922 4.305612 -0.309614 0.043467 21.681466 -34.964296 -24.646852 175.041165 -82.142194 -146.011202 10.803855 -24.419738 -48.977886 -9.772597 -3.532291 -4.163894 -3.441548 -29.845342 4.634413 -144.118352 -65.674916 124.546197 -4.895000 -13.436448 21.739095 6.607084 -39.170744 -6.748246 0.258420 68.112397 0.744089 5.945826 10.898485 7.874920 -0.057188 -7.495570 0.085166 -14.477283 -45.958867 4.153391 26.487898 64.764056 23.265874 -10.374758 37.051092 3.756177 0.518191 -20.569990 -8.873895
-15.015829 57.838327 55.146856 179.480616 -32.678572 -2.774636 1.465436 21.431024 3.993462 0.097576 2.906693 0.279045 0.155358 4.753730 0.480986 0.834273 18.363165 2.005554 -2.761204 15.516945 -1.426605 -4.626069 -6.997467 -1.668728 4.347146 -0.292871 0.040754 21.916889 -34.967296 -24.835683 176.591684 -81.398248 -147.086364 11.032317 -24.645348 -49.278678 -9.769483 -3.550441 -4.198889 -3.758618 -29.870992 4.748744 -145.402495 -65.787520 125.471539 -4.773171 -13.850652 22.349745 6.627132 -39.170503 -6.765030 0.249054 68.108254 0.744048 5.945236 10.901094 7.878706 -0.059637 -7.495939 0.086467 -14.463210 -45.959300 4.133556 26.480939 64.755354 23.267507 -10.373789 37.040714 3.757589 0.516827 -20.555548 -8.874395
-15.018421 57.839497 55.149017 179.478424 -32.679318 -2.767689 1.459704 21.449167 3.999020 0.093727 2.903741 0.281627 0.151826 4.756485 0.483349 0.834662 18.352111 1.991214 -2.754572 15.549058 -1.403071 -4.612918 -6.987575 -1.670774 4.382468 -0.274970 0.052047 22.134325 -34.975321 -25.027054 178.250088 -80.710784 -148.282173 11.265365 -24.863216 -49.552300 -9.774742 -3.554435 -4.217452 -4.060294 -29.900493 4.863751 -146.918432 -65.993501 126.602979 -4.671668 -14.273843 22.969080 6.639409 -39.167903 -6.773398 0.253074 68.103897 0.747164 5.941376 10.904046 7.883076 -0.059314 -7.495852 0.086472 -14.439818 -45.955240 4.108783 26.491978 64.741894 23.288586 -10.381779 37.031575 3.754522 0.514568 -20.542770 -8.871645
-15.022649 57.839653 55.152820 179.483978 -32.669368 -2.755719 1.446112 21.458062 3.994769 0.089026 2.907171 0.284428 0.149723 4.760949 0.485936 0.826724 18.359124 1.999668 -2.745054 15.562584 -1.403489 -4.601521 -6.971423 -1.667936 4.468210 -0.289303 0.052466 22.308537 -34.980572 -25.235115 179.784685 -80.067281 -149.366636 11.497323 -25.049742 -49.803161 -9.776709 -3.596837 -4.255663 -4.340042 -29.924805 4.981293 -148.587901 -66.232392 127.876026 -4.604202 -14.681664 23.571973 6.659343 -39.176079 -6.797679 0.244817 68.101915 0.739559 5.936700 10.906205 7.890359 -0.058884 -7.495278 0.086493 -14.415633 -45.962492 4.075371 26.485070 64.722673 23.292282 -10.400562 37.033986 3.746251 0.517426 -20.534111 -8.869672
-15.025839 57.840307 55.155978 179.490916 -32.664977 -2.750498 1.436018 21.467123 3.994813 0.086349 2.917048 0.288133 0.147951 4.767226 0.488837 0.818858 18.388818 2.021851 -2.737718 15.556613 -1.413286 -4.591388 -6.945664 -1.660863 4.506719 -0.345538 0.021216 22.512881 -34.982371 -25.414013 -178.938559 -79.474470 -150.222998 11.697733 -25.205282 -50.043777 -9.777190 -3.675625 -4.295447 -4.607397 -29.939300 5.094970 -150.281085 -66.439977 129.175664 -4.546985 -15.055741 24.127776 6.683698 -39.176420 -6.816122 0.231021 68.097876 0.729757 5.930814 10.907083 7.902723 -0.057823 -7.494155 0.085072 -14.398479 -45.963495 4.052038 26.480933 64.707946 23.294861 -10.413455 37.031376 3.741607 0.520247 -20.524209 -8.866980
